<svg id="SvgjsSvg26181" width="50" height="42" xmlns="http://www.w3.org/2000/svg" version="1.1" xmlns:xlink="http://www.w3.org/1999/xlink" xmlns:svgjs="http://svgjs.com/svgjs" viewBox="0 0.613037109375 50 40.77392578125" fill="#e8663c" opacity="1"><defs id="SvgjsDefs26182"></defs><svg version="1.1" xmlns="http://www.w3.org/2000/svg" xmlns:xlink="http://www.w3.org/1999/xlink" width="50" height="42" viewBox="1.99955 1.73939 48.8645 39.848"><g><path fill="#e8663c" stroke="none" paint-order="stroke fill markers" fill-rule="evenodd" d=" M 50.18978214263916 10.146166205406189 C 50.18978214263916 10.146166205406189 42.45721197128296 2.4137271642684937 42.45721197128296 2.4137271642684937 C 41.558409690856934 1.5146149396896362 40.100515842437744 1.5146149396896362 39.20146322250366 2.4137271642684937 C 39.20146322250366 2.4137271642684937 21.07913589477539 20.536123037338257 21.07913589477539 20.536123037338257 C 21.07913589477539 20.536123037338257 13.661993503570557 13.119093894958496 13.661993503570557 13.119093894958496 C 12.762857437133789 12.219981670379639 11.305213928222656 12.22007405757904 10.40624475479126 13.119093894958496 C 10.40624475479126 13.119093894958496 2.6738414764404297 20.85153293609619 2.6738414764404297 20.85153293609619 C 1.7747888565063477 21.750460386276245 1.7747888565063477 23.208238005638123 2.6738414764404297 24.107257843017578 C 2.6738414764404297 24.107257843017578 11.416197776794434 32.84967374801636 11.416197776794434 32.84967374801636 C 11.496556758880615 32.96746742725372 11.588181018829346 33.07833206653595 11.69040298461914 33.1805123090744 C 11.69040298461914 33.1805123090744 19.42280626296997 40.9130437374115 19.42280626296997 40.9130437374115 C 19.854475021362305 41.34476912021637 20.440102577209473 41.58737790584564 21.05068063735962 41.58737790584564 C 21.661258697509766 41.58737790584564 22.246802806854248 41.34476912021637 22.678555011749268 40.9131361246109 C 22.678555011749268 40.9131361246109 50.18978214263916 13.401891112327576 50.18978214263916 13.401891112327576 C 50.621450901031494 12.970165729522705 50.86402988433838 12.384615659713745 50.86402988433838 11.774028658866882 C 50.86402988433838 11.16344165802002 50.621450901031494 10.57789158821106 50.18978214263916 10.146166205406189 Z"></path></g></svg></svg>