<?xml version="1.0" encoding="utf-8"?><svg xmlns="http://www.w3.org/2000/svg" xmlns:xlink="http://www.w3.org/1999/xlink"><symbol viewBox="0 0 47 47" id="icon-1" xmlns="http://www.w3.org/2000/svg"><svg xmlns="http://www.w3.org/2000/svg" width="47" height="47" viewBox="1.988 1.991 46 46"><path paint-order="stroke fill markers" fill-rule="evenodd" d="M47.988 27.932v-5.885l-4.915-.393a18.25 18.25 0 00-.752-2.82l4.058-2.796-2.943-5.096-4.456 2.118A18.57 18.57 0 0036.919 11l2.118-4.456L33.94 3.6l-2.797 4.058a18.282 18.282 0 00-2.82-.752l-.394-4.915h-5.884l-.393 4.915c-.97.178-1.911.43-2.82.752l-2.797-4.057-5.096 2.942 2.118 4.456a18.46 18.46 0 00-2.062 2.061L6.54 10.943l-2.942 5.095 4.057 2.796c-.323.91-.574 1.852-.752 2.821l-4.916.393.001 5.884 4.915.394c.178.968.429 1.91.752 2.82L3.6 33.943l2.942 5.094 4.454-2.116c.633.74 1.322 1.43 2.063 2.061l-2.118 4.456 5.096 2.941 2.796-4.056c.909.322 1.851.574 2.82.752l.393 4.915h5.885l.393-4.915c.969-.178 1.91-.43 2.82-.753l2.797 4.057 5.096-2.941-2.118-4.457a18.4 18.4 0 002.061-2.061l4.456 2.117 2.943-5.095-4.058-2.796c.323-.91.574-1.852.752-2.82l4.915-.394zm-23 8.558c-6.351 0-11.5-5.149-11.5-11.5 0-6.352 5.149-11.5 11.5-11.5 6.352 0 11.5 5.148 11.5 11.5 0 6.351-5.148 11.5-11.5 11.5z"/></svg></symbol><symbol viewBox="0 0.613 50 40.774" id="icon-2" xmlns="http://www.w3.org/2000/svg"><svg xmlns="http://www.w3.org/2000/svg" width="50" height="42" viewBox="2 1.739 48.864 39.848"><path paint-order="stroke fill markers" fill-rule="evenodd" d="M50.19 10.146l-7.733-7.732a2.3 2.3 0 00-3.256 0L21.08 20.536l-7.417-7.417a2.303 2.303 0 00-3.256 0l-7.732 7.733a2.3 2.3 0 000 3.255l8.742 8.743c.08.117.172.228.274.33l7.733 7.733a2.302 2.302 0 003.256 0l27.51-27.511a2.302 2.302 0 000-3.256z"/></svg></symbol><symbol viewBox="0.439 0 42.122 41" id="icon-3" xmlns="http://www.w3.org/2000/svg"><svg xmlns="http://www.w3.org/2000/svg" width="43" height="41" viewBox="1.997 1.007 41.079 39.986"><path paint-order="stroke fill markers" fill-rule="evenodd" d="M29.805 23.076a12.213 12.213 0 004.963-9.837c0-6.756-5.475-12.232-12.231-12.232-6.755 0-12.23 5.476-12.23 12.232a12.21 12.21 0 004.961 9.837C7.512 25.814 1.997 32.8 1.997 40.993h41.08c0-8.192-5.516-15.18-13.272-17.917z"/></svg></symbol><symbol viewBox="0.433 0 36.134 53" opacity=".902" id="next" xmlns="http://www.w3.org/2000/svg"><svg xmlns="http://www.w3.org/2000/svg" width="37" height="53" viewBox="1.001 1.999 35.453 52.002"><path paint-order="stroke fill markers" fill-rule="evenodd" d="M10.633 54.001L36.455 28 10.633 1.999l-9.632 9.565L17.324 28 1 44.436 10.633 54z"/></svg></symbol><symbol viewBox="0.433 0 36.134 53" opacity=".902" id="prev" xmlns="http://www.w3.org/2000/svg"><svg xmlns="http://www.w3.org/2000/svg" width="37" height="53" viewBox="1.014 1.999 35.453 52.002"><path paint-order="stroke fill markers" fill-rule="evenodd" d="M26.836 1.999L1.014 28l25.822 26.001 9.631-9.565L20.145 28l16.322-16.436L26.836 2z"/></svg></symbol></svg>