<svg id="SvgjsSvg24649" width="47" height="47" xmlns="http://www.w3.org/2000/svg" version="1.1" xmlns:xlink="http://www.w3.org/1999/xlink" xmlns:svgjs="http://svgjs.com/svgjs" viewBox="0 0.00006103515625 46.99993896484375 46.99981689453125" fill="#e8663c" opacity="1"><defs id="SvgjsDefs24650"></defs><svg version="1.1" xmlns="http://www.w3.org/2000/svg" xmlns:xlink="http://www.w3.org/1999/xlink" width="47" height="47" viewBox="1.98837 1.99051 46.0001 46"><g><path fill="#e8663c" stroke="none" paint-order="stroke fill markers" fill-rule="evenodd" d=" M 47.98842191696167 27.93209171295166 C 47.98842191696167 27.93209171295166 47.98842191696167 22.047304272651672 47.98842191696167 22.047304272651672 C 47.98842191696167 22.047304272651672 43.07325601577759 21.65428912639618 43.07325601577759 21.65428912639618 C 42.895348072052 20.68542456626892 42.644174098968506 19.743537068367004 42.320735454559326 18.833892703056335 C 42.320735454559326 18.833892703056335 46.37873888015747 16.037516951560974 46.37873888015747 16.037516951560974 C 46.37873888015747 16.037516951560974 43.4363317489624 10.941900968551636 43.4363317489624 10.941900968551636 C 43.4363317489624 10.941900968551636 38.98003816604614 13.060339450836182 38.98003816604614 13.060339450836182 C 38.34743022918701 12.319486498832703 37.65866279602051 11.63073992729187 36.918909549713135 10.998811483383179 C 36.918909549713135 10.998811483383179 39.03661489486694 6.542607307434082 39.03661489486694 6.542607307434082 C 39.03661489486694 6.542607307434082 33.94062042236328 3.600167393684387 33.94062042236328 3.600167393684387 C 33.94062042236328 3.600167393684387 31.144161224365234 7.658090353012085 31.144161224365234 7.658090353012085 C 30.234510898590088 7.335381865501404 29.292316436767578 7.083811521530151 28.32383632659912 6.906428098678589 C 28.32383632659912 6.906428098678589 27.930052280426025 1.9905052185058594 27.930052280426025 1.9905052185058594 C 27.930052280426025 1.9905052185058594 22.04598903656006 1.9905052185058594 22.04598903656006 1.9905052185058594 C 22.04598903656006 1.9905052185058594 21.652538776397705 6.906428098678589 21.652538776397705 6.906428098678589 C 20.68380832672119 7.083811521530151 19.741530418395996 7.335381865501404 18.832213878631592 7.658090353012085 C 18.832213878631592 7.658090353012085 16.036255359649658 3.600906491279602 16.036255359649658 3.600906491279602 C 16.036255359649658 3.600906491279602 10.939843654632568 6.542607307434082 10.939843654632568 6.542607307434082 C 10.939843654632568 6.542607307434082 13.05788278579712 10.998811483383179 13.05788278579712 10.998811483383179 C 12.317461967468262 11.63073992729187 11.62827730178833 12.319486498832703 10.996336936950684 13.060339450836182 C 10.996336936950684 13.060339450836182 6.540877819061279 10.94264006614685 6.540877819061279 10.94264006614685 C 6.540877819061279 10.94264006614685 3.5988879203796387 16.03825604915619 3.5988879203796387 16.03825604915619 C 3.5988879203796387 16.03825604915619 7.6557230949401855 18.833892703056335 7.6557230949401855 18.833892703056335 C 7.332618236541748 19.743537068367004 7.08186149597168 20.686163663864136 6.9043707847595215 21.655028223991394 C 6.9043707847595215 21.655028223991394 1.988370418548584 22.048043370246887 1.988370418548584 22.048043370246887 C 1.988370418548584 22.048043370246887 1.9892048835754395 27.93209171295166 1.9892048835754395 27.93209171295166 C 1.9892048835754395 27.93209171295166 6.9043707847595215 28.32593834400177 6.9043707847595215 28.32593834400177 C 7.08186149597168 29.29434096813202 7.332618236541748 30.23650562763214 7.6557230949401855 31.145503282546997 C 7.6557230949401855 31.145503282546997 3.5996389389038086 33.94261813163757 3.5996389389038086 33.94261813163757 C 3.5996389389038086 33.94261813163757 6.541628837585449 39.0374950170517 6.541628837585449 39.0374950170517 C 6.541628837585449 39.0374950170517 10.996336936950684 36.92053472995758 10.996336936950684 36.92053472995758 C 11.628611087799072 37.660648584365845 12.318129539489746 38.350226640701294 13.058717250823975 38.982155084609985 C 13.058717250823975 38.982155084609985 10.941011905670166 43.43762016296387 10.941011905670166 43.43762016296387 C 10.941011905670166 43.43762016296387 16.036922931671143 46.379228591918945 16.036922931671143 46.379228591918945 C 16.036922931671143 46.379228591918945 18.83263111114502 42.32324576377869 18.83263111114502 42.32324576377869 C 19.741530418395996 42.64549231529236 20.68422555923462 42.89706265926361 21.652538776397705 43.07481563091278 C 21.652538776397705 43.07481563091278 22.04598903656006 47.990461349487305 22.04598903656006 47.990461349487305 C 22.04598903656006 47.990461349487305 27.930803298950195 47.990461349487305 27.930803298950195 47.990461349487305 C 27.930803298950195 47.990461349487305 28.32383632659912 43.07481563091278 28.32383632659912 43.07481563091278 C 29.292733669281006 42.89706265926361 30.234510898590088 42.64549231529236 31.144161224365234 42.32241427898407 C 31.144161224365234 42.32241427898407 33.94062042236328 46.379228591918945 33.94062042236328 46.379228591918945 C 33.94062042236328 46.379228591918945 39.03661489486694 43.43762016296387 39.03661489486694 43.43762016296387 C 39.03661489486694 43.43762016296387 36.918909549713135 38.98141598701477 36.918909549713135 38.98141598701477 C 37.65866279602051 38.34948754310608 38.34818124771118 37.660648584365845 38.98003816604614 36.919795632362366 C 38.98003816604614 36.919795632362366 43.4363317489624 39.0374950170517 43.4363317489624 39.0374950170517 C 43.4363317489624 39.0374950170517 46.37873888015747 33.94187903404236 46.37873888015747 33.94187903404236 C 46.37873888015747 33.94187903404236 42.321486473083496 31.145503282546997 42.321486473083496 31.145503282546997 C 42.644174098968506 30.235858917236328 42.895348072052 29.29434096813202 43.07325601577759 28.32593834400177 C 43.07325601577759 28.32593834400177 47.98842191696167 27.93209171295166 47.98842191696167 27.93209171295166 Z M 24.988062381744385 36.49047231674194 C 18.636531829833984 36.49047231674194 13.488383293151855 31.34127175807953 13.488383293151855 24.990483283996582 C 13.488383293151855 18.63849377632141 18.636531829833984 13.49049425125122 24.988062381744385 13.49049425125122 C 31.340010166168213 13.49049425125122 36.4884090423584 18.63849377632141 36.4884090423584 24.990483283996582 C 36.4884090423584 31.34127175807953 31.340010166168213 36.49047231674194 24.988062381744385 36.49047231674194 Z"></path></g></svg></svg>